# xmcd CD database file
#
# Track frame offsets:
#	150
#	11650
#	24497
#	31200
#	41820
#	48040
#	76620
#	80732
#	87792
#	101092
#	113597
#
# Disc length: 1817 seconds
#
# Revision: 0
# Processed by: cddbd v1.4PL0 Copyright (c) Steve Scherf et al.
# Submitted via: CDex 1.50
#
DISCID=7307170b
DTITLE=Butterflies of Love - America's Newest Hit Makers
DYEAR=1996
DGENRE=Power Pop
TTITLE0=Lunatic
TTITLE1=I Try Too Hard
TTITLE2=Guilt
TTITLE3=I Read Her Diary
TTITLE4=Intermission
TTITLE5=Walking the Dog
TTITLE6=Down to the Center of the Earth
TTITLE7=I Don't Want
TTITLE8=No One Can Stop the Clock
TTITLE9=Rock N' Roll Star
TTITLE10=Sleep
EXTD=YEAR: 1996
EXTT0=
EXTT1=
EXTT2=
EXTT3=
EXTT4=
EXTT5=
EXTT6=
EXTT7=
EXTT8=
EXTT9=
EXTT10=
PLAYORDER=
